<svg width="630" height="524" version="1.1" viewBox="0 0 630.22327 524.10132" xmlns="http://www.w3.org/2000/svg"><g transform="translate(2 20)"><g transform="rotate(27.4 284 371)"><path d="m32 296h134c21.4 0 32.1 25.9 17 41l-41.8 41.8c31.3 29.3 71.8 45.3 115 45.3 77.4-0.07 144-53.1 163-127 1.34-5.36 6.12-9.15 11.7-9.15h57.3c7.5 0 13.2 6.81 11.8 14.2-21.6 115-123 202-244 202-66.4 0-127-26.1-171-68.7l-35.7 35.7c-15.1 15.1-41 4.41-41-17v-134c0-13.3 10.7-24 24-24z" fill="#e8cb18"/><path d="m371 133c-31.3-29.3-71.8-45.3-115-45.3-77.5 0.068-144 53.2-163 127-1.34 5.36-6.12 9.15-11.7 9.15h-57.3c-7.5 0-13.2-6.81-11.8-14.2 21.6-115 123-202 244-202 66.4 0 127 26.1 171 68.7l35.7-35.7c15.1-15.1 41-4.41 41 17v134c0 13.3-10.7 24-24 24h-134c-21.4 0-32.1-25.9-17-41z" fill="#388b01"/></g></g><g transform="translate(2 20)"><g transform="rotate(27.4 342 361)"><path d="m32 296h134c21.4 0 32.1 25.9 17 41l-41.8 41.8c31.3 29.3 71.8 45.3 115 45.3 77.4-0.07 144-53.1 163-127 1.34-5.36 6.12-9.15 11.7-9.15h57.3c7.5 0 13.2 6.81 11.8 14.2-21.6 115-123 202-244 202-66.4 0-127-26.1-171-68.7l-35.7 35.7c-15.1 15.1-41 4.41-41-17v-134c0-13.3 10.7-24 24-24z" fill="#ff1"/><path d="m371 133c-31.3-29.3-71.8-45.3-115-45.3-77.5 0.068-144 53.2-163 127-1.34 5.36-6.12 9.15-11.7 9.15h-57.3c-7.5 0-13.2-6.81-11.8-14.2 21.6-115 123-202 244-202 66.4 0 127 26.1 171 68.7l35.7-35.7c15.1-15.1 41-4.41 41 17v134c0 13.3-10.7 24-24 24h-134c-21.4 0-32.1-25.9-17-41z" fill="#50e10b"/></g></g></svg>
